<svg width="31" height="24" viewBox="0 0 31 24" fill="none" xmlns="http://www.w3.org/2000/svg">
<path d="M12 21C10.8181 21 9.64778 20.7672 8.55585 20.3149C7.46392 19.8626 6.47177 19.1997 5.63604 18.364C4.80031 17.5282 4.13738 16.5361 3.68508 15.4442C3.23279 14.3522 3 13.1819 3 12C3 9.61305 3.94821 7.32387 5.63604 5.63604C7.32387 3.94821 9.61305 3 12 3C14.3869 3 16.6761 3.94821 18.364 5.63604C20.0518 7.32387 21 9.61305 21 12" stroke="#17BCAE" stroke-width="2" stroke-linecap="square" stroke-linejoin="round"/>
<path d="M3.59961 9H20.3996" stroke="#17BCAE" stroke-width="2" stroke-linecap="round" stroke-linejoin="round"/>
<path d="M4 14C3.44772 14 3 14.4477 3 15C3 15.5523 3.44772 16 4 16V14ZM12 16H13V14H12V16ZM4 16H12V14H4V16Z" fill="#17BCAE"/>
<path d="M11.4997 3C9.81501 5.69961 8.92188 8.81787 8.92188 12C8.92188 15.1821 9.81501 18.3004 11.4997 21" stroke="#17BCAE" stroke-width="2" stroke-linecap="round" stroke-linejoin="round"/>
<path d="M13.3484 2.47059C13.056 2.00205 12.4391 1.85925 11.9706 2.15163C11.502 2.44402 11.3592 3.06087 11.6516 3.52941L13.3484 2.47059ZM14.0778 12V13H16.0778V12H14.0778ZM11.6516 3.52941C13.2372 6.07022 14.0778 9.00505 14.0778 12H16.0778C16.0778 8.63068 15.1321 5.329 13.3484 2.47059L11.6516 3.52941Z" fill="#17BCAE"/>
<path d="M13.783 14.925H21.226V19.443H20.092V15.987H14.872V19.488H13.783V14.925ZM14.35 17.922H20.722V18.984H14.35V17.922ZM16.906 13.359H18.049V21.81H16.906V13.359ZM28.219 15.366L29.371 15.699C28.237 18.939 26.14 20.829 22.918 21.837C22.792 21.567 22.45 21.045 22.234 20.784C25.348 19.965 27.283 18.3 28.219 15.366ZM24.745 15.438C25.654 18.102 27.598 20.019 30.802 20.739C30.541 20.991 30.19 21.504 30.019 21.819C26.644 20.937 24.79 18.876 23.665 15.762L24.745 15.438ZM22.396 14.781H30.64V15.843H22.396V14.781ZM25.933 13.359H27.049V15.429H25.933V13.359Z" fill="#17BCAE"/>
</svg>
