<svg width="27" height="24" viewBox="0 0 27 24" fill="none" xmlns="http://www.w3.org/2000/svg">
<path d="M12 21C10.8181 21 9.64778 20.7672 8.55585 20.3149C7.46392 19.8626 6.47177 19.1997 5.63604 18.364C4.80031 17.5282 4.13738 16.5361 3.68508 15.4442C3.23279 14.3522 3 13.1819 3 12C3 9.61305 3.94821 7.32387 5.63604 5.63604C7.32387 3.94821 9.61305 3 12 3C14.3869 3 16.6761 3.94821 18.364 5.63604C20.0518 7.32387 21 9.61305 21 12" stroke="#17BCAE" stroke-width="2" stroke-linecap="square" stroke-linejoin="round"/>
<path d="M3.59961 9H20.3996" stroke="#17BCAE" stroke-width="2" stroke-linecap="round" stroke-linejoin="round"/>
<path d="M4 14C3.44772 14 3 14.4477 3 15C3 15.5523 3.44772 16 4 16V14ZM12 16H13V14H12V16ZM4 16H12V14H4V16Z" fill="#17BCAE"/>
<path d="M11.4997 3C9.81501 5.69961 8.92188 8.81787 8.92188 12C8.92188 15.1821 9.81501 18.3004 11.4997 21" stroke="#17BCAE" stroke-width="2" stroke-linecap="round" stroke-linejoin="round"/>
<path d="M13.3484 2.47059C13.056 2.00205 12.4391 1.85925 11.9706 2.15163C11.502 2.44402 11.3592 3.06087 11.6516 3.52941L13.3484 2.47059ZM14.0778 12V13H16.0778V12H14.0778ZM11.6516 3.52941C13.2372 6.07022 14.0778 9.00505 14.0778 12H16.0778C16.0778 8.63068 15.1321 5.329 13.3484 2.47059L11.6516 3.52941Z" fill="#17BCAE"/>
<path d="M15.3705 15.224V17.4295H18.1535V18.568H15.3705V20.8175H18.9015V22H13.8855V14.047H18.9015V15.224H15.3705ZM26.9171 14.047V22H26.1581C26.0408 22 25.9418 21.9817 25.8611 21.945C25.7841 21.9047 25.709 21.8387 25.6356 21.747L21.4831 16.445C21.5051 16.687 21.5161 16.9107 21.5161 17.116V22H20.2126V14.047H20.9881C21.0505 14.047 21.1036 14.0507 21.1476 14.058C21.1953 14.0617 21.2356 14.0727 21.2686 14.091C21.3053 14.1057 21.3401 14.1295 21.3731 14.1625C21.4061 14.1918 21.4428 14.2322 21.4831 14.2835L25.6521 19.6075C25.6411 19.4792 25.632 19.3527 25.6246 19.228C25.6173 19.1033 25.6136 18.9878 25.6136 18.8815V14.047H26.9171Z" fill="#17BCAE"/>
</svg>
